<mxfile host="app.diagrams.net" modified="2023-05-26T05:38:51.003Z" agent="Mozilla/5.0 (Macintosh; Intel Mac OS X 10_15_7) AppleWebKit/605.1.15 (KHTML, like Gecko) Version/16.4 Safari/605.1.15" version="21.3.4" etag="OugwuXvE72rc0V8lmJmy" type="github">
  <diagram name="페이지-1" id="0dRibzRLTnweM8Aq3bIV">
    <mxGraphModel>
      <root>
        <mxCell id="0" />
        <mxCell id="1" parent="0" />
      </root>
    </mxGraphModel>
  </diagram>
</mxfile>
